<?xml version="1.0" encoding="iso-8859-1"?>
<!-- Uploaded to: SVG Repo, www.svgrepo.com, Generator: SVG Repo Mixer Tools -->
<svg height="800px" width="800px" version="1.1" id="Layer_1" xmlns="http://www.w3.org/2000/svg" xmlns:xlink="http://www.w3.org/1999/xlink" 
	 viewBox="0 0 512 512" xml:space="preserve">
<path style="fill:#E09B2D;" d="M473.877,284.263v182.302c0,19.731-15.995,35.726-35.726,35.726h-0.013
	c-19.227,0-34.911-15.193-35.687-34.226c-0.026-0.491-0.039-0.996-0.039-1.5V284.263"/>
<polyline style="fill:#F95428;" points="149.367,137.565 149.367,9.698 413.749,9.698 413.749,185.737 "/>
<polyline style="fill:#E6E6E6;" points="314.187,91.157 444.782,91.157 444.782,255.706 444.782,468.07 231.437,468.07 "/>
<polyline style="fill:#2BA5F7;" points="74.98,235.323 74.98,47.19 264.122,47.19 339.362,122.417 339.362,289.965 "/>
<path style="fill:#F7B239;" d="M438.138,502.291v0.013H73.858c-19.731,0-35.726-15.995-35.726-35.726V227.06
	c0-14.352,11.637-26.002,25.99-26.002h93.213c10.706,0,20.313,6.568,24.218,16.538l14.908,38.105H373.85
	c15.775,0,28.563,12.788,28.563,28.563v37.29v145.011c0,0.504,0.013,1.009,0.039,1.5
	C403.227,487.098,418.911,502.291,438.138,502.291z"/>
<g>
	<path style="fill:#333333;" d="M473.874,274.571c-5.357,0-9.698,4.342-9.698,9.698V466.57c0,14.352-11.676,26.028-26.041,26.028
		c-10.365,0-19.298-6.001-23.485-14.831h30.13c5.357,0,9.698-4.342,9.698-9.698V91.157c0-5.356-4.341-9.698-9.698-9.698H343.925
		c-5.357,0-9.698,4.342-9.698,9.698s4.341,9.698,9.698,9.698h91.157v357.518h-22.977l0.004-174.104
		c0-21.095-17.162-38.259-38.259-38.259h-0.005l0,0h-34.485l0,0H203.076l-12.497-31.95c-5.392-13.786-18.441-22.694-33.242-22.694
		H64.123c-19.682,0-35.695,16.013-35.695,35.695v239.513c0,25.048,20.378,45.426,45.426,45.426h364.288v-0.005
		c0.003,0,0.004,0,0.006,0c25.047,0,45.423-20.377,45.423-45.423V284.268C483.572,278.913,479.23,274.571,473.874,274.571z
		 M47.823,466.574V227.06c0-8.988,7.312-16.3,16.3-16.3h93.214c6.76,0,12.717,4.068,15.18,10.363l14.907,38.115
		c1.455,3.717,5.039,6.165,9.032,6.165h177.397c10.401,0,18.864,8.461,18.864,18.864l-0.004,182.303c0,0.68,0.018,1.36,0.047,1.894
		c0.367,8.998,3.314,17.272,8.105,24.139H73.854C59.5,492.605,47.823,480.926,47.823,466.574z"/>
	<path style="fill:#333333;" d="M74.98,181.018c5.356,0,9.698-4.342,9.698-9.698V56.889h169.746v65.53
		c0,5.356,4.341,9.698,9.698,9.698h65.543v93.847c0,5.356,4.341,9.698,9.698,9.698s9.698-4.342,9.698-9.698V122.418
		c0-2.572-1.021-5.039-2.841-6.858l-75.24-75.227c-1.818-1.818-4.284-2.839-6.857-2.839H74.98c-5.356,0-9.698,4.342-9.698,9.698
		V171.32C65.283,176.676,69.625,181.018,74.98,181.018z M273.82,70.6l42.129,42.12H273.82V70.6z"/>
	<path style="fill:#333333;" d="M149.367,26.507c4.46,0,8.217-3.011,9.348-7.112H404.05v45.586c0,5.356,4.341,9.698,9.698,9.698
		c5.357,0,9.698-4.342,9.698-9.698V9.698c0-5.356-4.341-9.698-9.698-9.698H149.366c-5.356,0-9.698,4.342-9.698,9.698v7.112
		C139.67,22.165,144.012,26.507,149.367,26.507z"/>
	<path style="fill:#333333;" d="M121.529,141.916h100.855c5.356,0,9.698-4.342,9.698-9.698s-4.342-9.698-9.698-9.698H121.529
		c-5.356,0-9.698,4.342-9.698,9.698S116.173,141.916,121.529,141.916z"/>
	<path style="fill:#333333;" d="M121.529,176.338h173.263c5.357,0,9.698-4.342,9.698-9.698s-4.341-9.698-9.698-9.698H121.529
		c-5.356,0-9.698,4.342-9.698,9.698S116.173,176.338,121.529,176.338z"/>
</g>
</svg>